<svg id="background" xmlns="http://www.w3.org/2000/svg" viewBox="0 0 600 400"><path d="M171.5,252.1a5.17,5.17,0,0,0-8.59,5.74L0,375.28v1.24L163.51,258.65a5.12,5.12,0,0,0,3.07,1.67,4.9,4.9,0,0,0,.77.06,5.19,5.19,0,0,0,4.15-8.28Zm-1.67,6.45a4.18,4.18,0,1,1,.87-5.85A4.16,4.16,0,0,1,169.83,258.55Z" /><path d="M138.42,260.6a5.17,5.17,0,0,0-8.59,5.75L0,359.64v1.22l130.41-93.7a5.18,5.18,0,0,0,9-2.71A5.15,5.15,0,0,0,138.42,260.6Zm0,3.7a4.12,4.12,0,0,1-1.65,2.75,4.18,4.18,0,1,1,.87-5.85A4.14,4.14,0,0,1,138.4,264.3Z" /><path d="M129.65,331.31a5.17,5.17,0,0,0-8.59,5.74L32.85,400h1.73l87.06-62.13a5.18,5.18,0,0,0,8-6.56ZM128,337.76a4.19,4.19,0,0,1-5-6.72,4.13,4.13,0,0,1,2.49-.82,4.18,4.18,0,0,1,2.5,7.54Z" /><path d="M163.86,377.39a5.17,5.17,0,0,0-8.59,5.74L131.63,400h1.74l22.5-16.06a5.12,5.12,0,0,0,3.07,1.67,5,5,0,0,0,.77.06,5.18,5.18,0,0,0,4.15-8.28Zm0,3.7a4.16,4.16,0,0,1-1.65,2.75,4.18,4.18,0,0,1-6.63-4,4.17,4.17,0,0,1,1.64-2.75,4.19,4.19,0,0,1,6.64,4Z" /><path d="M186.66,313.78a5.16,5.16,0,0,0-3.41-2,5.08,5.08,0,0,0-3.84,1,5.18,5.18,0,0,0-1.34,6.82L66.16,400h1.72l110.79-79.67a5.16,5.16,0,0,0,3.84,1.73,5.18,5.18,0,0,0,4.15-8.28Zm0,3.71a4.2,4.2,0,0,1-4.76,3.52,4.11,4.11,0,0,1-2.74-1.64,4.18,4.18,0,0,1,3.35-6.68,4.4,4.4,0,0,1,.62,0,4.19,4.19,0,0,1,3.53,4.76Z" /><path d="M70.33,251.41a5.17,5.17,0,0,0-7.25-1.07,5.13,5.13,0,0,0-1.34,6.81L0,301.21v1.24L62.32,258a5.18,5.18,0,0,0,8-6.56Zm0,3.7a4.19,4.19,0,0,1-7.5,1.89,4.2,4.2,0,0,1,.86-5.86,4.19,4.19,0,0,1,2.49-.83,4.32,4.32,0,0,1,.62.05,4.19,4.19,0,0,1,3.53,4.75Z" /><path d="M32.91,178.59a5.2,5.2,0,0,0-7.25-1.07,5.14,5.14,0,0,0-1.34,6.82L0,201.7v1.22l24.9-17.77a5.18,5.18,0,0,0,8-6.56Zm0,3.71a4.19,4.19,0,1,1-6.64-4,4.12,4.12,0,0,1,2.49-.83,3.24,3.24,0,0,1,.62.05,4.18,4.18,0,0,1,3.53,4.75Z" /><path d="M103.6,201.91A5.17,5.17,0,0,0,95,207.65L0,276v1.24l95.59-68.74a5.19,5.19,0,0,0,6.94.69,5.17,5.17,0,0,0,1.07-7.25Zm0,3.7a4.18,4.18,0,1,1-4.15-4.8,4.32,4.32,0,0,1,.62.05,4.18,4.18,0,0,1,3.53,4.75Z" /><path d="M109.09,175.9a5.17,5.17,0,0,0-8.59,5.74L0,254.06v1.23l101.08-72.83a5.18,5.18,0,0,0,8-6.56Zm-1.67,6.45a4.19,4.19,0,1,1,.87-5.86A4.19,4.19,0,0,1,107.42,182.35Z" /><path d="M160.07,289.76a5.19,5.19,0,0,0-9.29,2.33h0l-11.67-.57L0,391.38v1.24L139.41,292.55l11.32.55A5.19,5.19,0,0,0,159,297,5.18,5.18,0,0,0,160.07,289.76Zm-1.67,6.45a4.18,4.18,0,0,1-5.85-.86,4.18,4.18,0,0,1,3.35-6.68,4.18,4.18,0,0,1,2.5,7.54Z" /><path d="M199.46,283.86a5.17,5.17,0,0,0-8.59,5.75L151,319.24l-24.37-3.6-.2,0L8.44,400h1.72l116.48-83.34,24.58,3.63,40.23-29.86a5.19,5.19,0,0,0,8-6.57Zm-1.67,6.45a4.19,4.19,0,1,1-5-6.72,4.15,4.15,0,0,1,2.48-.82,4.21,4.21,0,0,1,.62,0,4.12,4.12,0,0,1,2.75,1.65A4.18,4.18,0,0,1,197.79,290.31Z" /><path d="M229.48,324.3a5.17,5.17,0,0,0-8.59,5.75L181,359.68l-24.37-3.6-.2,0L95,400H96.7l60-42.9,24.59,3.63,40.22-29.87a5.18,5.18,0,0,0,8-6.56Zm-1.67,6.45a4.19,4.19,0,1,1-2.5-7.55,4.44,4.44,0,0,1,.62.05,4.12,4.12,0,0,1,2.74,1.65A4.18,4.18,0,0,1,227.81,330.75Z" /><path d="M123.74,240.83a5.18,5.18,0,1,0-8.32,6.18,5.09,5.09,0,0,0,2.43,1.79l-2.75,11L0,342.42v1.23L115.83,260.5l.15-.11L118.82,249a4.9,4.9,0,0,0,.77.06,5.18,5.18,0,0,0,4.15-8.27Zm-1.66,6.45a4.18,4.18,0,0,1-6.64-4,4.19,4.19,0,0,1,7.5-1.89A4.19,4.19,0,0,1,122.08,247.28Z" /><path d="M66.11,173.59a5.19,5.19,0,1,0-8.33,6.19,5.14,5.14,0,0,0,2.43,1.79l-2.75,11L0,233.81V235l58.2-41.78.14-.1,2.84-11.35a5.12,5.12,0,0,0,3.85-1A5.2,5.2,0,0,0,66.11,173.59Zm-1.67,6.46a4.19,4.19,0,0,1-6.64-4,4.19,4.19,0,1,1,6.64,4Z" /><path d="M138,201.1a5.19,5.19,0,0,0-9.29,2.33,5.1,5.1,0,0,0,.71,3.42L90.13,236l-4.28,25.66L0,323.11v1.23l86.6-62,.16-.12,4.29-25.67,39-28.92a5.18,5.18,0,0,0,9-2.72A5.15,5.15,0,0,0,138,201.1Zm0,3.71a4.15,4.15,0,0,1-1.64,2.74,4.19,4.19,0,1,1-5-6.72,4.15,4.15,0,0,1,2.48-.82,4.11,4.11,0,0,1,3.37,1.69A4.16,4.16,0,0,1,138,204.81Z" /><path d="M171.5,252.1a5.17,5.17,0,0,0-8.59,5.74L0,375.28v1.24L163.51,258.65a5.12,5.12,0,0,0,3.07,1.67,4.9,4.9,0,0,0,.77.06,5.19,5.19,0,0,0,4.15-8.28Zm-1.67,6.45a4.18,4.18,0,1,1,.87-5.85A4.16,4.16,0,0,1,169.83,258.55Z" /><path d="M138.42,260.6a5.17,5.17,0,0,0-8.59,5.75L0,359.64v1.22l130.41-93.7a5.18,5.18,0,0,0,9-2.71A5.15,5.15,0,0,0,138.42,260.6Zm0,3.7a4.12,4.12,0,0,1-1.65,2.75,4.18,4.18,0,1,1,.87-5.85A4.14,4.14,0,0,1,138.4,264.3Z" /><path d="M129.65,331.31a5.17,5.17,0,0,0-8.59,5.74L32.85,400h1.73l87.06-62.13a5.18,5.18,0,0,0,8-6.56ZM128,337.76a4.19,4.19,0,0,1-5-6.72,4.13,4.13,0,0,1,2.49-.82,4.18,4.18,0,0,1,2.5,7.54Z" /><path d="M163.86,377.39a5.17,5.17,0,0,0-8.59,5.74L131.63,400h1.74l22.5-16.06a5.12,5.12,0,0,0,3.07,1.67,5,5,0,0,0,.77.06,5.18,5.18,0,0,0,4.15-8.28Zm0,3.7a4.16,4.16,0,0,1-1.65,2.75,4.18,4.18,0,0,1-6.63-4,4.17,4.17,0,0,1,1.64-2.75,4.19,4.19,0,0,1,6.64,4Z" /><path d="M186.66,313.78a5.16,5.16,0,0,0-3.41-2,5.08,5.08,0,0,0-3.84,1,5.18,5.18,0,0,0-1.34,6.82L66.16,400h1.72l110.79-79.67a5.16,5.16,0,0,0,3.84,1.73,5.18,5.18,0,0,0,4.15-8.28Zm0,3.71a4.2,4.2,0,0,1-4.76,3.52,4.11,4.11,0,0,1-2.74-1.64,4.18,4.18,0,0,1,3.35-6.68,4.4,4.4,0,0,1,.62,0,4.19,4.19,0,0,1,3.53,4.76Z" /><path d="M70.33,251.41a5.17,5.17,0,0,0-7.25-1.07,5.13,5.13,0,0,0-1.34,6.81L0,301.21v1.24L62.32,258a5.18,5.18,0,0,0,8-6.56Zm0,3.7a4.19,4.19,0,0,1-7.5,1.89,4.2,4.2,0,0,1,.86-5.86,4.19,4.19,0,0,1,2.49-.83,4.32,4.32,0,0,1,.62.05,4.19,4.19,0,0,1,3.53,4.75Z" /><path d="M32.91,178.59a5.2,5.2,0,0,0-7.25-1.07,5.14,5.14,0,0,0-1.34,6.82L0,201.7v1.22l24.9-17.77a5.18,5.18,0,0,0,8-6.56Zm0,3.71a4.19,4.19,0,1,1-6.64-4,4.12,4.12,0,0,1,2.49-.83,3.24,3.24,0,0,1,.62.05,4.18,4.18,0,0,1,3.53,4.75Z" /><path d="M103.6,201.91A5.17,5.17,0,0,0,95,207.65L0,276v1.24l95.59-68.74a5.19,5.19,0,0,0,6.94.69,5.17,5.17,0,0,0,1.07-7.25Zm0,3.7a4.18,4.18,0,1,1-4.15-4.8,4.32,4.32,0,0,1,.62.05,4.18,4.18,0,0,1,3.53,4.75Z" /><path d="M109.09,175.9a5.17,5.17,0,0,0-8.59,5.74L0,254.06v1.23l101.08-72.83a5.18,5.18,0,0,0,8-6.56Zm-1.67,6.45a4.19,4.19,0,1,1,.87-5.86A4.19,4.19,0,0,1,107.42,182.35Z" /><path d="M53,143.1a5.17,5.17,0,0,0-8.59,5.74L0,180.83v1.23l45-32.4a5.18,5.18,0,0,0,8-6.56Zm-1.67,6.45a4.19,4.19,0,1,1,.87-5.86A4.19,4.19,0,0,1,51.31,149.55Z" /><path d="M160.07,289.76a5.19,5.19,0,0,0-9.29,2.33h0l-11.67-.57L0,391.38v1.24L139.41,292.55l11.32.55A5.19,5.19,0,0,0,159,297,5.18,5.18,0,0,0,160.07,289.76Zm-1.67,6.45a4.18,4.18,0,0,1-5.85-.86,4.18,4.18,0,0,1,3.35-6.68,4.18,4.18,0,0,1,2.5,7.54Z" /><path d="M199.46,283.86a5.17,5.17,0,0,0-8.59,5.75L151,319.24l-24.37-3.6-.2,0L8.44,400h1.72l116.48-83.34,24.58,3.63,40.23-29.86a5.19,5.19,0,0,0,8-6.57Zm-1.67,6.45a4.19,4.19,0,1,1-5-6.72,4.15,4.15,0,0,1,2.48-.82,4.21,4.21,0,0,1,.62,0,4.12,4.12,0,0,1,2.75,1.65A4.18,4.18,0,0,1,197.79,290.31Z" /><path d="M229.48,324.3a5.17,5.17,0,0,0-8.59,5.75L181,359.68l-24.37-3.6-.2,0L95,400H96.7l60-42.9,24.59,3.63,40.22-29.87a5.18,5.18,0,0,0,8-6.56Zm-1.67,6.45a4.19,4.19,0,1,1-2.5-7.55,4.44,4.44,0,0,1,.62.05,4.12,4.12,0,0,1,2.74,1.65A4.18,4.18,0,0,1,227.81,330.75Z" /><path d="M123.74,240.83a5.18,5.18,0,1,0-8.32,6.18,5.09,5.09,0,0,0,2.43,1.79l-2.75,11L0,342.42v1.23L115.83,260.5l.15-.11L118.82,249a4.9,4.9,0,0,0,.77.06,5.18,5.18,0,0,0,4.15-8.27Zm-1.66,6.45a4.18,4.18,0,0,1-6.64-4,4.19,4.19,0,0,1,7.5-1.89A4.19,4.19,0,0,1,122.08,247.28Z" /><path d="M66.11,173.59a5.19,5.19,0,1,0-8.33,6.19,5.14,5.14,0,0,0,2.43,1.79l-2.75,11L0,233.81V235l58.2-41.78.14-.1,2.84-11.35a5.12,5.12,0,0,0,3.85-1A5.2,5.2,0,0,0,66.11,173.59Zm-1.67,6.46a4.19,4.19,0,0,1-6.64-4,4.19,4.19,0,1,1,6.64,4Z" /><path d="M26.11,128.55a5.19,5.19,0,1,0-8.33,6.19,5.14,5.14,0,0,0,2.43,1.79l-2.75,11L0,160.05v1.24l18.2-13.07.14-.1,2.84-11.35a5.12,5.12,0,0,0,3.85-1A5.2,5.2,0,0,0,26.11,128.55ZM24.44,135a4.19,4.19,0,0,1-6.64-4,4.19,4.19,0,1,1,6.64,4Z" /><path d="M220,382.63a5.17,5.17,0,0,0-8.59,5.74L195.25,400H197l15-10.81a5.18,5.18,0,0,0,8-6.56Zm-1.67,6.45a4.19,4.19,0,1,1,.87-5.86A4.19,4.19,0,0,1,218.31,389.08Z" /><path d="M254.09,388.1a5.17,5.17,0,0,0-8.59,5.74L237,400h1.72l7.41-5.34a5.18,5.18,0,0,0,8-6.56Zm-1.67,6.45a4.19,4.19,0,1,1,.87-5.86A4.19,4.19,0,0,1,252.42,394.55Z" /><path d="M193.11,368.09a5.19,5.19,0,1,0-8.33,6.19,5.14,5.14,0,0,0,2.43,1.79l-2.75,11-18,12.94h1.72l17-12.24.14-.1,2.84-11.35a5.12,5.12,0,0,0,3.85-1A5.2,5.2,0,0,0,193.11,368.09Zm-1.67,6.46a4.19,4.19,0,0,1-6.64-4,4.19,4.19,0,1,1,6.64,4Z" /><path d="M138,201.1a5.19,5.19,0,0,0-9.29,2.33,5.1,5.1,0,0,0,.71,3.42L90.13,236l-4.28,25.66L0,323.11v1.23l86.6-62,.16-.12,4.29-25.67,39-28.92a5.18,5.18,0,0,0,9-2.72A5.15,5.15,0,0,0,138,201.1Zm0,3.71a4.15,4.15,0,0,1-1.64,2.74,4.19,4.19,0,1,1-5-6.72,4.15,4.15,0,0,1,2.48-.82,4.11,4.11,0,0,1,3.37,1.69A4.16,4.16,0,0,1,138,204.81Z" /><path d="M428.5,147.9a5.17,5.17,0,0,0,8.59-5.74L600,24.72V23.48L436.49,141.35a5.12,5.12,0,0,0-3.07-1.67,4.9,4.9,0,0,0-.77-.06,5.19,5.19,0,0,0-4.15,8.28Zm1.67-6.45a4.18,4.18,0,1,1-.87,5.85A4.16,4.16,0,0,1,430.17,141.45Z" /><path d="M461.58,139.4a5.17,5.17,0,0,0,8.59-5.75L600,40.36V39.14l-130.41,93.7a5.18,5.18,0,0,0-9,2.71A5.15,5.15,0,0,0,461.58,139.4Zm0-3.7a4.12,4.12,0,0,1,1.65-2.75,4.18,4.18,0,1,1-.87,5.85A4.14,4.14,0,0,1,461.6,135.7Z" /><path d="M470.35,68.69A5.17,5.17,0,0,0,478.94,63L567.15,0h-1.73L478.36,62.13a5.18,5.18,0,0,0-8,6.56ZM472,62.24A4.19,4.19,0,0,1,477,69a4.13,4.13,0,0,1-2.49.82,4.18,4.18,0,0,1-2.5-7.54Z" /><path d="M436.14,22.61a5.17,5.17,0,0,0,8.59-5.74L468.37,0h-1.74l-22.5,16.06a5.12,5.12,0,0,0-3.07-1.67,5,5,0,0,0-.77-.06,5.18,5.18,0,0,0-4.15,8.28Zm0-3.7a4.16,4.16,0,0,1,1.65-2.75,4.18,4.18,0,0,1,6.63,4,4.17,4.17,0,0,1-1.64,2.75,4.19,4.19,0,0,1-6.64-4Z" /><path d="M413.34,86.22a5.16,5.16,0,0,0,3.41,2,5.08,5.08,0,0,0,3.84-1,5.18,5.18,0,0,0,1.34-6.82L533.84,0h-1.72L421.33,79.67a5.16,5.16,0,0,0-3.84-1.73,5.18,5.18,0,0,0-4.15,8.28Zm0-3.71A4.2,4.2,0,0,1,418.12,79a4.11,4.11,0,0,1,2.74,1.64,4.18,4.18,0,0,1-3.35,6.68,4.4,4.4,0,0,1-.62,0,4.19,4.19,0,0,1-3.53-4.76Z" /><path d="M529.67,148.59a5.17,5.17,0,0,0,7.25,1.07,5.13,5.13,0,0,0,1.34-6.81L600,98.79V97.55L537.68,142a5.18,5.18,0,0,0-8,6.56Zm0-3.7a4.19,4.19,0,0,1,7.5-1.89,4.2,4.2,0,0,1-.86,5.86,4.19,4.19,0,0,1-2.49.83,4.32,4.32,0,0,1-.62-.05,4.19,4.19,0,0,1-3.53-4.75Z" /><path d="M567.09,221.41a5.2,5.2,0,0,0,7.25,1.07,5.14,5.14,0,0,0,1.34-6.82L600,198.3v-1.22l-24.9,17.77a5.18,5.18,0,0,0-8,6.56Zm0-3.71a4.19,4.19,0,1,1,6.64,4,4.12,4.12,0,0,1-2.49.83,3.24,3.24,0,0,1-.62-.05,4.18,4.18,0,0,1-3.53-4.75Z" /><path d="M496.4,198.09a5.17,5.17,0,0,0,8.59-5.74L600,124v-1.24l-95.59,68.74a5.19,5.19,0,0,0-6.94-.69,5.17,5.17,0,0,0-1.07,7.25Zm0-3.7a4.18,4.18,0,1,1,4.15,4.8,4.32,4.32,0,0,1-.62-.05,4.18,4.18,0,0,1-3.53-4.75Z" /><path d="M490.91,224.1a5.17,5.17,0,0,0,8.59-5.74L600,145.94v-1.23L498.92,217.54a5.18,5.18,0,0,0-8,6.56Zm1.67-6.45a4.19,4.19,0,1,1-.87,5.86A4.19,4.19,0,0,1,492.58,217.65Z" /><path d="M439.93,110.24a5.19,5.19,0,0,0,9.29-2.33h0l11.67.57L600,8.62V7.38L460.59,107.45l-11.32-.55A5.19,5.19,0,0,0,441,103,5.18,5.18,0,0,0,439.93,110.24Zm1.67-6.45a4.18,4.18,0,0,1,5.85.86,4.18,4.18,0,0,1-3.35,6.68,4.18,4.18,0,0,1-2.5-7.54Z" /><path d="M400.54,116.14a5.17,5.17,0,0,0,8.59-5.75L449,80.76l24.37,3.6.2,0L591.56,0h-1.72L473.36,83.34l-24.58-3.63-40.23,29.86a5.19,5.19,0,0,0-8,6.57Zm1.67-6.45a4.19,4.19,0,1,1,5,6.72,4.15,4.15,0,0,1-2.48.82,4.21,4.21,0,0,1-.62,0,4.12,4.12,0,0,1-2.75-1.65A4.18,4.18,0,0,1,402.21,109.69Z" /><path d="M370.52,75.7A5.17,5.17,0,0,0,379.11,70L419,40.32l24.37,3.6.2,0L505,0H503.3l-60,42.9-24.59-3.63L378.53,69.14a5.18,5.18,0,0,0-8,6.56Zm1.67-6.45a4.19,4.19,0,1,1,2.5,7.55,4.44,4.44,0,0,1-.62,0,4.12,4.12,0,0,1-2.74-1.65A4.18,4.18,0,0,1,372.19,69.25Z" /><path d="M476.26,159.17a5.18,5.18,0,1,0,8.32-6.18,5.09,5.09,0,0,0-2.43-1.79l2.75-11L600,57.58V56.35L484.17,139.5l-.15.11L481.18,151a4.9,4.9,0,0,0-.77-.06,5.18,5.18,0,0,0-4.15,8.27Zm1.66-6.45a4.18,4.18,0,0,1,6.64,4,4.19,4.19,0,0,1-7.5,1.89A4.19,4.19,0,0,1,477.92,152.72Z" /><path d="M533.89,226.41a5.19,5.19,0,1,0,8.33-6.19,5.14,5.14,0,0,0-2.43-1.79l2.75-11L600,166.19V165l-58.2,41.78-.14.1-2.84,11.35a5.12,5.12,0,0,0-3.85,1A5.2,5.2,0,0,0,533.89,226.41Zm1.67-6.46a4.19,4.19,0,0,1,6.64,4,4.19,4.19,0,1,1-6.64-4Z" /><path d="M462,198.9a5.19,5.19,0,0,0,9.29-2.33,5.1,5.1,0,0,0-.71-3.42L509.87,164l4.28-25.66L600,76.89V75.66l-86.6,62-.16.12L509,163.41l-39,28.92a5.18,5.18,0,0,0-9,2.72A5.15,5.15,0,0,0,462,198.9Zm0-3.71a4.15,4.15,0,0,1,1.64-2.74,4.19,4.19,0,1,1,5,6.72,4.15,4.15,0,0,1-2.48.82,4.11,4.11,0,0,1-3.37-1.69A4.16,4.16,0,0,1,462,195.19Z" /><path d="M428.5,147.9a5.17,5.17,0,0,0,8.59-5.74L600,24.72V23.48L436.49,141.35a5.12,5.12,0,0,0-3.07-1.67,4.9,4.9,0,0,0-.77-.06,5.19,5.19,0,0,0-4.15,8.28Zm1.67-6.45a4.18,4.18,0,1,1-.87,5.85A4.16,4.16,0,0,1,430.17,141.45Z" /><path d="M461.58,139.4a5.17,5.17,0,0,0,8.59-5.75L600,40.36V39.14l-130.41,93.7a5.18,5.18,0,0,0-9,2.71A5.15,5.15,0,0,0,461.58,139.4Zm0-3.7a4.12,4.12,0,0,1,1.65-2.75,4.18,4.18,0,1,1-.87,5.85A4.14,4.14,0,0,1,461.6,135.7Z" /><path d="M470.35,68.69A5.17,5.17,0,0,0,478.94,63L567.15,0h-1.73L478.36,62.13a5.18,5.18,0,0,0-8,6.56ZM472,62.24A4.19,4.19,0,0,1,477,69a4.13,4.13,0,0,1-2.49.82,4.18,4.18,0,0,1-2.5-7.54Z" /><path d="M436.14,22.61a5.17,5.17,0,0,0,8.59-5.74L468.37,0h-1.74l-22.5,16.06a5.12,5.12,0,0,0-3.07-1.67,5,5,0,0,0-.77-.06,5.18,5.18,0,0,0-4.15,8.28Zm0-3.7a4.16,4.16,0,0,1,1.65-2.75,4.18,4.18,0,0,1,6.63,4,4.17,4.17,0,0,1-1.64,2.75,4.19,4.19,0,0,1-6.64-4Z" /><path d="M413.34,86.22a5.16,5.16,0,0,0,3.41,2,5.08,5.08,0,0,0,3.84-1,5.18,5.18,0,0,0,1.34-6.82L533.84,0h-1.72L421.33,79.67a5.16,5.16,0,0,0-3.84-1.73,5.18,5.18,0,0,0-4.15,8.28Zm0-3.71A4.2,4.2,0,0,1,418.12,79a4.11,4.11,0,0,1,2.74,1.64,4.18,4.18,0,0,1-3.35,6.68,4.4,4.4,0,0,1-.62,0,4.19,4.19,0,0,1-3.53-4.76Z" /><path d="M529.67,148.59a5.17,5.17,0,0,0,7.25,1.07,5.13,5.13,0,0,0,1.34-6.81L600,98.79V97.55L537.68,142a5.18,5.18,0,0,0-8,6.56Zm0-3.7a4.19,4.19,0,0,1,7.5-1.89,4.2,4.2,0,0,1-.86,5.86,4.19,4.19,0,0,1-2.49.83,4.32,4.32,0,0,1-.62-.05,4.19,4.19,0,0,1-3.53-4.75Z" /><path d="M567.09,221.41a5.2,5.2,0,0,0,7.25,1.07,5.14,5.14,0,0,0,1.34-6.82L600,198.3v-1.22l-24.9,17.77a5.18,5.18,0,0,0-8,6.56Zm0-3.71a4.19,4.19,0,1,1,6.64,4,4.12,4.12,0,0,1-2.49.83,3.24,3.24,0,0,1-.62-.05,4.18,4.18,0,0,1-3.53-4.75Z" /><path d="M496.4,198.09a5.17,5.17,0,0,0,8.59-5.74L600,124v-1.24l-95.59,68.74a5.19,5.19,0,0,0-6.94-.69,5.17,5.17,0,0,0-1.07,7.25Zm0-3.7a4.18,4.18,0,1,1,4.15,4.8,4.32,4.32,0,0,1-.62-.05,4.18,4.18,0,0,1-3.53-4.75Z" /><path d="M490.91,224.1a5.17,5.17,0,0,0,8.59-5.74L600,145.94v-1.23L498.92,217.54a5.18,5.18,0,0,0-8,6.56Zm1.67-6.45a4.19,4.19,0,1,1-.87,5.86A4.19,4.19,0,0,1,492.58,217.65Z" /><path d="M547,256.9a5.17,5.17,0,0,0,8.59-5.74l44.39-32v-1.23l-45,32.4a5.18,5.18,0,0,0-8,6.56Zm1.67-6.45a4.19,4.19,0,1,1-.87,5.86A4.19,4.19,0,0,1,548.69,250.45Z" /><path d="M439.93,110.24a5.19,5.19,0,0,0,9.29-2.33h0l11.67.57L600,8.62V7.38L460.59,107.45l-11.32-.55A5.19,5.19,0,0,0,441,103,5.18,5.18,0,0,0,439.93,110.24Zm1.67-6.45a4.18,4.18,0,0,1,5.85.86,4.18,4.18,0,0,1-3.35,6.68,4.18,4.18,0,0,1-2.5-7.54Z" /><path d="M400.54,116.14a5.17,5.17,0,0,0,8.59-5.75L449,80.76l24.37,3.6.2,0L591.56,0h-1.72L473.36,83.34l-24.58-3.63-40.23,29.86a5.19,5.19,0,0,0-8,6.57Zm1.67-6.45a4.19,4.19,0,1,1,5,6.72,4.15,4.15,0,0,1-2.48.82,4.21,4.21,0,0,1-.62,0,4.12,4.12,0,0,1-2.75-1.65A4.18,4.18,0,0,1,402.21,109.69Z" /><path d="M370.52,75.7A5.17,5.17,0,0,0,379.11,70L419,40.32l24.37,3.6.2,0L505,0H503.3l-60,42.9-24.59-3.63L378.53,69.14a5.18,5.18,0,0,0-8,6.56Zm1.67-6.45a4.19,4.19,0,1,1,2.5,7.55,4.44,4.44,0,0,1-.62,0,4.12,4.12,0,0,1-2.74-1.65A4.18,4.18,0,0,1,372.19,69.25Z" /><path d="M476.26,159.17a5.18,5.18,0,1,0,8.32-6.18,5.09,5.09,0,0,0-2.43-1.79l2.75-11L600,57.58V56.35L484.17,139.5l-.15.11L481.18,151a4.9,4.9,0,0,0-.77-.06,5.18,5.18,0,0,0-4.15,8.27Zm1.66-6.45a4.18,4.18,0,0,1,6.64,4,4.19,4.19,0,0,1-7.5,1.89A4.19,4.19,0,0,1,477.92,152.72Z" /><path d="M533.89,226.41a5.19,5.19,0,1,0,8.33-6.19,5.14,5.14,0,0,0-2.43-1.79l2.75-11L600,166.19V165l-58.2,41.78-.14.1-2.84,11.35a5.12,5.12,0,0,0-3.85,1A5.2,5.2,0,0,0,533.89,226.41Zm1.67-6.46a4.19,4.19,0,0,1,6.64,4,4.19,4.19,0,1,1-6.64-4Z" /><path d="M573.89,271.45a5.19,5.19,0,1,0,8.33-6.19,5.14,5.14,0,0,0-2.43-1.79l2.75-11L600,240v-1.24l-18.2,13.07-.14.1-2.84,11.35a5.12,5.12,0,0,0-3.85,1A5.2,5.2,0,0,0,573.89,271.45Zm1.67-6.46a4.19,4.19,0,0,1,6.64,4,4.19,4.19,0,1,1-6.64-4Z" /><path d="M380,17.37a5.17,5.17,0,0,0,8.59-5.74L404.75,0H403L388,10.81a5.18,5.18,0,0,0-8,6.56Zm1.67-6.45a4.19,4.19,0,1,1-.87,5.86A4.19,4.19,0,0,1,381.69,10.92Z" /><path d="M345.91,11.9a5.17,5.17,0,0,0,8.59-5.74L363.05,0h-1.72l-7.41,5.34a5.18,5.18,0,0,0-8,6.56Zm1.67-6.45a4.19,4.19,0,1,1-.87,5.86A4.19,4.19,0,0,1,347.58,5.45Z" /><path d="M406.89,31.91a5.19,5.19,0,1,0,8.33-6.19,5.14,5.14,0,0,0-2.43-1.79l2.75-11L433.57,0h-1.72L414.8,12.24l-.14.1-2.84,11.35a5.12,5.12,0,0,0-3.85,1A5.2,5.2,0,0,0,406.89,31.91Zm1.67-6.46a4.19,4.19,0,0,1,6.64,4,4.19,4.19,0,1,1-6.64-4Z" /><path d="M462,198.9a5.19,5.19,0,0,0,9.29-2.33,5.1,5.1,0,0,0-.71-3.42L509.87,164l4.28-25.66L600,76.89V75.66l-86.6,62-.16.12L509,163.41l-39,28.92a5.18,5.18,0,0,0-9,2.72A5.15,5.15,0,0,0,462,198.9Zm0-3.71a4.15,4.15,0,0,1,1.64-2.74,4.19,4.19,0,1,1,5,6.72,4.15,4.15,0,0,1-2.48.82,4.11,4.11,0,0,1-3.37-1.69A4.16,4.16,0,0,1,462,195.19Z" /></svg>